<?xml version="1.0" standalone="no"?>
<!DOCTYPE svg PUBLIC "-//W3C//DTD SVG 20010904//EN"
 "http://www.w3.org/TR/2001/REC-SVG-20010904/DTD/svg10.dtd">
<svg version="1.0" xmlns="http://www.w3.org/2000/svg"
 width="344.000000pt" height="344.000000pt" viewBox="0 0 344.000000 344.000000"
 preserveAspectRatio="xMidYMid meet">

<g transform="translate(0.000000,344.000000) scale(0.100000,-0.100000)"
fill="#000000" stroke="none">
<path d="M591 2901 c-20 -37 4 -41 280 -43 l264 -3 0 -1135 0 -1135 -264 -3
c-276 -2 -300 -6 -280 -43 9 -18 23 -19 307 -17 l297 3 0 1195 0 1195 -297 3
c-284 2 -298 1 -307 -17z"/>
<path d="M1315 2908 c-3 -7 -4 -546 -3 -1198 l3 -1185 760 -3 c702 -2 761 -1
772 15 32 43 32 43 -738 43 l-729 0 0 1140 0 1140 728 0 c536 0 731 3 740 12
7 7 8 17 1 30 -9 17 -41 18 -770 18 -598 0 -761 -3 -764 -12z"/>
<path d="M597 2783 c-4 -3 -7 -12 -7 -20 0 -10 43 -13 220 -13 l220 0 0 -1030
0 -1030 -221 0 c-205 0 -220 -1 -217 -17 3 -16 23 -18 227 -21 156 -2 228 1
237 9 19 16 21 2098 2 2117 -13 13 -449 18 -461 5z"/>
<path d="M1452 2778 c-14 -14 -17 -235 -3 -257 21 -33 31 4 31 115 l0 114 686
0 c647 0 685 1 682 18 -3 16 -45 17 -694 20 -528 2 -693 -1 -702 -10z"/>
<path d="M1444 2415 c-8 -33 3 -77 19 -72 7 2 13 25 15 50 2 37 0 47 -12 47
-9 0 -18 -11 -22 -25z"/>
<path d="M1447 2293 c-9 -8 -9 -396 -1 -417 3 -9 12 -16 20 -16 12 0 14 39 14
220 0 177 -3 220 -13 220 -8 0 -17 -3 -20 -7z"/>
<path d="M1446 1775 c-3 -9 -6 -261 -6 -560 0 -445 2 -545 14 -554 9 -8 202
-10 702 -9 647 3 689 4 692 21 3 16 -35 17 -682 17 l-686 0 -2 547 c-2 394 -6
547 -14 550 -6 2 -14 -3 -18 -12z"/>
</g>
</svg>
