<?xml version="1.0" standalone="no"?>
<!DOCTYPE svg PUBLIC "-//W3C//DTD SVG 20010904//EN"
 "http://www.w3.org/TR/2001/REC-SVG-20010904/DTD/svg10.dtd">
<svg version="1.0" xmlns="http://www.w3.org/2000/svg"
 width="512.000000pt" height="512.000000pt" viewBox="0 0 512.000000 512.000000"
 preserveAspectRatio="xMidYMid meet">

<g transform="translate(0.000000,512.000000) scale(0.100000,-0.100000)"
fill="#000000" stroke="none">
<path d="M0 5025 l0 -95 615 0 615 0 0 -2375 0 -2375 -615 0 -615 0 0 -90 0
-90 710 0 710 0 0 2560 0 2560 -710 0 -710 0 0 -95z"/>
<path d="M1610 2560 l0 -2560 1755 0 1755 0 0 95 0 95 -1665 0 -1665 0 0 2380
0 2380 1665 0 1665 0 0 85 0 85 -1755 0 -1755 0 0 -2560z"/>
<path d="M0 4775 l0 -95 490 0 490 0 0 -2110 0 -2110 -490 0 -490 0 0 -90 0
-90 585 0 585 0 0 2295 0 2295 -585 0 -585 0 0 -95z"/>
<path d="M1860 2575 l0 -2295 1630 0 1630 0 0 95 0 95 -1540 0 -1540 0 0 2115
0 2115 1540 0 1540 0 0 85 0 85 -1630 0 -1630 0 0 -2295z"/>
</g>
</svg>
